inverse kinematics
nRows=58
nColumns=12

# SIMM Motion File Header:
name inverse kinematics
datacolumns 12
datarows 58
otherdata 1
range 0.50000000 0.97500000
endheader
time	r_shoulder_elev	r_elbow_flex	r_acromion_tx	r_acromion_ty	r_acromion_tz	r_humerus_epicondyle_tx	r_humerus_epicondyle_ty	r_humerus_epicondyle_tz	r_radius_styloid_tx	r_radius_styloid_ty	r_radius_styloid_tz
      0.50000000	      0.01198206	     45.24730749	     -0.01301630	      0.03954370	      0.16954370	     -0.01253037	     -0.29738537	      0.20001463	      0.15854159	     -0.46634048	      0.24161399
      0.50833333	      0.01267270	     46.43407232	     -0.01310109	      0.03945891	      0.16945891	     -0.01253887	     -0.29739387	      0.20000613	      0.16207688	     -0.46287969	      0.24134337
      0.51666667	      0.01345596	     47.61941862	     -0.01316785	      0.03939215	      0.16939215	     -0.01254760	     -0.29740260	      0.19999740	      0.16553716	     -0.45935101	      0.24107261
      0.52500000	      0.01437089	     48.80243902	     -0.01321436	      0.03934564	      0.16934564	     -0.01255624	     -0.29741124	      0.19998876	      0.16891877	     -0.45575859	      0.24080197
      0.53333333	      0.01545184	     49.98224116	     -0.01323908	      0.03932092	      0.16932092	     -0.01256443	     -0.29741943	      0.19998057	      0.17221831	     -0.45210681	      0.24053171
      0.54166667	      0.01672706	     51.15795063	     -0.01324117	      0.03931883	      0.16931883	     -0.01257186	     -0.29742686	      0.19997314	      0.17543264	     -0.44840022	      0.24026209
      0.55000000	      0.01821759	     52.32871326	     -0.01322058	      0.03933942	      0.16933942	     -0.01257824	     -0.29743324	      0.19996676	      0.17855889	     -0.44464355	      0.23999336
      0.55833333	      0.01993625	     53.49369685	     -0.01317798	      0.03938202	      0.16938202	     -0.01258332	     -0.29743832	      0.19996168	      0.18159446	     -0.44084166	      0.23972577
      0.56666667	      0.02188715	     54.65209201	     -0.01311480	      0.03944520	      0.16944520	     -0.01258690	     -0.29744190	      0.19995810	      0.18453702	     -0.43699960	      0.23945956
      0.57500000	      0.02406536	     55.80311241	     -0.01303314	      0.03952686	      0.16952686	     -0.01258883	     -0.29744383	      0.19995617	      0.18738455	     -0.43312250	      0.23919498
      0.58333333	      0.02645693	     56.94599452	     -0.01293572	      0.03962428	      0.16962428	     -0.01258904	     -0.29744405	      0.19995595	      0.19013529	     -0.42921562	      0.23893226
      0.59166667	      0.02903926	     58.07999661	     -0.01282578	      0.03973422	      0.16973422	     -0.01258753	     -0.29744253	      0.19995747	      0.19278781	     -0.42528429	      0.23867162
      0.60000000	      0.03178161	     59.20440250	     -0.01270699	      0.03985301	      0.16985301	     -0.01258436	     -0.29743936	      0.19996064	      0.19534094	     -0.42133392	      0.23841329
      0.60833333	      0.03464610	     60.31852459	     -0.01258330	      0.03997670	      0.16997670	     -0.01257964	     -0.29743464	      0.19996536	      0.19779387	     -0.41736991	      0.23815746
      0.61666667	      0.03758875	     61.42170168	     -0.01245884	      0.04010116	      0.17010116	     -0.01257356	     -0.29742856	      0.19997144	      0.20014607	     -0.41339769	      0.23790435
      0.62500000	      0.04056077	     62.51329589	     -0.01233775	      0.04022225	      0.17022225	     -0.01256636	     -0.29742136	      0.19997864	      0.20239731	     -0.40942265	      0.23765413
      0.63333333	      0.04350995	     63.59268878	     -0.01222406	      0.04033594	      0.17033594	     -0.01255833	     -0.29741333	      0.19998667	      0.20454767	     -0.40545016	      0.23740699
      0.64166667	      0.04638226	     64.65927586	     -0.01212156	      0.04043844	      0.17043844	     -0.01254978	     -0.29740478	      0.19999522	      0.20659748	     -0.40148555	      0.23716308
      0.65000000	      0.04912336	     65.71246042	     -0.01203366	      0.04052634	      0.17052634	     -0.01254103	     -0.29739603	      0.20000397	      0.20854735	     -0.39753414	      0.23692258
      0.65833333	      0.05168016	     66.75164583	     -0.01196330	      0.04059670	      0.17059670	     -0.01253244	     -0.29738744	      0.20001256	      0.21039814	     -0.39360118	      0.23668561
      0.66666667	      0.05400236	     67.77622719	     -0.01191281	      0.04064719	      0.17064719	     -0.01252435	     -0.29737935	      0.20002065	      0.21215091	     -0.38969195	      0.23645234
      0.67500000	      0.05604381	     68.78558259	     -0.01188388	      0.04067612	      0.17067612	     -0.01251706	     -0.29737206	      0.20002794	      0.21380696	     -0.38581170	      0.23622289
      0.68333333	      0.06979236	     69.77100245	     -0.01187747	      0.04068253	      0.17068253	     -0.01251087	     -0.29736587	      0.20003413	      0.21536776	     -0.38196571	      0.23599740
      0.69166667	      0.06806868	     70.75126662	     -0.01189380	      0.04066620	      0.17066620	     -0.01250602	     -0.29736102	      0.20003898	      0.21683498	     -0.37815928	      0.23577600
      0.70000000	      0.06770480	     71.71218515	     -0.01193232	      0.04062768	      0.17062768	     -0.01250269	     -0.29735769	      0.20004231	      0.21821046	     -0.37439776	      0.23555882
      0.70833333	      0.06690687	     72.65507471	     -0.01199174	      0.04056826	      0.17056826	     -0.01250102	     -0.29735602	      0.20004398	      0.21949622	     -0.37068650	      0.23534597
      0.71666667	      0.06584502	     73.57897612	     -0.01207010	      0.04048990	      0.17048990	     -0.01250108	     -0.29735608	      0.20004392	      0.22069445	     -0.36703086	      0.23513758
      0.72500000	      0.06449404	     74.48314039	     -0.01216477	      0.04039523	      0.17039523	     -0.01250285	     -0.29735785	      0.20004215	      0.22180755	     -0.36343612	      0.23493376
      0.73333333	      0.06285762	     75.36679895	     -0.01227261	      0.04028739	      0.17028739	     -0.01250628	     -0.29736128	      0.20003872	      0.22283809	     -0.35990746	      0.23473462
      0.74166667	      0.06094491	     76.22920866	     -0.01239002	      0.04016998	      0.17016998	     -0.01251123	     -0.29736623	      0.20003377	      0.22378885	     -0.35644981	      0.23454024
      0.75000000	      0.05877203	     77.06967336	     -0.01251309	      0.04004691	      0.17004691	     -0.01251750	     -0.29737250	      0.20002750	      0.22466280	     -0.35306781	      0.23435070
      0.75833333	      0.05636103	     77.88756761	     -0.01263773	      0.03992227	      0.16992227	     -0.01252484	     -0.29737984	      0.20002016	      0.22546310	     -0.34976566	      0.23416605
      0.76666667	      0.05373876	     78.68235732	     -0.01275978	      0.03980022	      0.16980022	     -0.01253298	     -0.29738798	      0.20001202	      0.22619307	     -0.34654709	      0.23398632
      0.77500000	      0.05093576	     79.45361444	     -0.01287517	      0.03968483	      0.16968483	     -0.01254159	     -0.29739659	      0.20000341	      0.22685619	     -0.34341525	      0.23381151
      0.78333333	      0.04798497	     80.20102266	     -0.01298006	      0.03957994	      0.16957994	     -0.01255033	     -0.29740533	      0.19999467	      0.22745603	     -0.34037273	      0.23364162
      0.79166667	      0.04492049	     80.92437184	     -0.01307096	      0.03948904	      0.16948904	     -0.01255886	     -0.29741386	      0.19998614	      0.22799621	     -0.33742155	      0.23347660
      0.80000000	      0.04177628	     81.62353969	     -0.01314484	      0.03941516	      0.16941516	     -0.01256685	     -0.29742185	      0.19997815	      0.22848037	     -0.33456327	      0.23331641
      0.80833333	      0.03858497	     82.29846098	     -0.01319924	      0.03936076	      0.16936076	     -0.01257398	     -0.29742898	      0.19997102	      0.22891211	     -0.33179911	      0.23316099
      0.81666667	      0.03537668	     82.94908527	     -0.01323235	      0.03932765	      0.16932765	     -0.01257998	     -0.29743498	      0.19996502	      0.22929492	     -0.32913014	      0.23301028
      0.82500000	      0.03217802	     83.57532672	     -0.01324306	      0.03931694	      0.16931694	     -0.01258461	     -0.29743961	      0.19996039	      0.22963221	     -0.32655748	      0.23286425
      0.83333333	      0.02901118	     84.17701009	     -0.01323102	      0.03932898	      0.16932898	     -0.01258768	     -0.29744268	      0.19995732	      0.22992720	     -0.32408258	      0.23272287
      0.84166667	      0.02589322	     84.75381918	     -0.01319663	      0.03936337	      0.16936337	     -0.01258908	     -0.29744408	      0.19995592	      0.23018300	     -0.32170738	      0.23258614
      0.85000000	      0.02283563	     85.30525356	     -0.01314103	      0.03941897	      0.16941897	     -0.01258876	     -0.29744376	      0.19995624	      0.23040254	     -0.31943456	      0.23245411
      0.85833333	      0.01984394	     85.83060080	     -0.01306607	      0.03949393	      0.16949393	     -0.01258672	     -0.29744172	      0.19995828	      0.23058864	     -0.31726762	      0.23232686
      0.86666667	      0.01691778	     86.32892998	     -0.01297426	      0.03958574	      0.16958574	     -0.01258304	     -0.29743804	      0.19996196	      0.23074402	     -0.31521095	      0.23220452
      0.87500000	      0.01405106	     86.79911086	     -0.01286865	      0.03969135	      0.16969135	     -0.01257787	     -0.29743287	      0.19996713	      0.23087130	     -0.31326970	      0.23208723
      0.88333333	      0.01123241	     87.23986240	     -0.01275276	      0.03980724	      0.16980724	     -0.01257142	     -0.29742642	      0.19997358	      0.23097310	     -0.31144964	      0.23197518
      0.89166667	      0.00844590	     87.64983004	     -0.01263045	      0.03992955	      0.16992955	     -0.01256393	     -0.29741893	      0.19998107	      0.23105197	     -0.30975681	      0.23186856
      0.90000000	      0.00567191	     88.02769033	     -0.01250579	      0.04005421	      0.17005421	     -0.01255570	     -0.29741070	      0.19998930	      0.23111047	     -0.30819707	      0.23176755
      0.90833333	      0.00288819	     88.37227703	     -0.01238294	      0.04017706	      0.17017706	     -0.01254705	     -0.29740205	      0.19999795	      0.23115111	     -0.30677559	      0.23167233
      0.91666667	      0.00007104	     88.68272162	     -0.01226599	      0.04029401	      0.17029401	     -0.01253832	     -0.29739332	      0.20000668	      0.23117637	     -0.30549626	      0.23158301
      0.92500000	     -0.00280345	     88.95859798	     -0.01215882	      0.04040118	      0.17040118	     -0.01252985	     -0.29738485	      0.20001515	      0.23118860	     -0.30436106	      0.23149965
      0.93333333	     -0.00575814	     89.20006062	     -0.01206503	      0.04049497	      0.17049497	     -0.01252197	     -0.29737697	      0.20002303	      0.23119006	     -0.30336953	      0.23142223
      0.94166667	     -0.00881334	     89.40796412	     -0.01198771	      0.04057229	      0.17057229	     -0.01251500	     -0.29737000	      0.20003000	      0.23118280	     -0.30251825	      0.23135060
      0.95000000	     -0.01198637	     89.58395452	     -0.01192947	      0.04063053	      0.17063053	     -0.01250920	     -0.29736420	      0.20003580	      0.23116869	     -0.30180044	      0.23128455
      0.95833333	      0.01890233	     89.64605129	     -0.01189222	      0.04066778	      0.17066778	     -0.01250481	     -0.29735981	      0.20004019	      0.23114936	     -0.30120580	      0.23122369
      0.96666667	     -0.02746879	     89.85716098	     -0.01187722	      0.04068278	      0.17068278	     -0.01250199	     -0.29735699	      0.20004301	      0.23112621	     -0.30072042	      0.23116756
      0.97500000	     -0.00118994	     89.89484427	     -0.01188496	      0.04067504	      0.17067504	     -0.01250085	     -0.29735585	      0.20004415	      0.23110044	     -0.30032702	      0.23111556
